<svg width="16" height="16" viewBox="0 0 16 16" fill="none" xmlns="http://www.w3.org/2000/svg">
<path d="M1 5.62163L7 0.432439C7.18753 0.270302 7.46415 0 8 0C8.53585 0 8.81247 0.270302 9 0.432439L15 5.62163C15.5 6.05406 16 6.48649 16 7.35136V14.2703C16 14.4996 16 15.1351 15.5 15.5676C15 16 14.2652 16 14 16L12 16C10.8954 16 10 15.1046 10 14V11.9459C10 10.8414 9.10457 9.94592 8 9.94592C6.89543 9.94592 6 10.8414 6 11.9459V14C6 15.1045 5.10457 16 4 16H2C1.73478 16 1.00002 16 0.5 15.5676C-4.45578e-05 15.1351 0 14.4673 0 14.2379V7.35136C5.66374e-05 7.122 0 6.48649 1 5.62163Z" fill="#5E58EE"/>
</svg>
