<svg width="16" height="13" viewBox="0 0 16 13" fill="none" xmlns="http://www.w3.org/2000/svg">
<path fill-rule="evenodd" clip-rule="evenodd" d="M4.5 0H5.67857V1H4.5C3.39543 1 2.5 1.89543 2.5 3V4.45717H1.5V3C1.5 1.34315 2.84315 0 4.5 0ZM1.5 9.47146V10C1.5 11.6569 2.84315 13 4.5 13H5.67857V12H4.5C3.39543 12 2.5 11.1046 2.5 10V9.47146H1.5ZM13.5 9.47146V10C13.5 11.1046 12.6046 12 11.5 12H10.6929V13H11.5C13.1569 13 14.5 11.6569 14.5 10V9.47146H13.5ZM14.5 4.45717V3C14.5 1.34315 13.1569 0 11.5 0H10.6929V1H11.5C12.6046 1 13.5 1.89543 13.5 3V4.45717H14.5Z" fill="#9192BA"/>
<rect y="8" width="16" height="1" fill="#9192BA"/>
<path fill-rule="evenodd" clip-rule="evenodd" d="M6.5 2C4.84315 2 3.5 3.34315 3.5 5V7.4H12.5V5C12.5 3.34315 11.1569 2 9.5 2H6.5ZM12.4852 8.3H3.51481C3.66533 9.816 4.94439 11 6.5 11H9.5C11.0556 11 12.3347 9.816 12.4852 8.3Z" fill="#9192BA"/>
</svg>
